####
#
# OBJ File Generated by Meshlab
#
####
# Object end_tool_from_stl.obj
#
# Vertices: 132
# Faces: 260
#
####
vn -3.1189982185668415 0.2654656335311802 2.9717769857850742
v -0.0375948250293732 0.0031997913029045 0.0000000000000000
vn -3.1189982185668406 0.2654656335311801 -2.9717769857850742
v -0.0375948250293732 0.0031997913029045 -0.0270000007003546
vn -3.1189982185668415 -0.2654656335311802 -2.9717769857850742
v -0.0375948250293732 -0.0031997913029045 -0.0270000007003546
vn -3.1189982185668406 -0.2654656335311801 2.9717769857850742
v -0.0375948250293732 -0.0031997913029045 0.0000000000000000
vn -3.0292701739632268 -0.7887608119527877 -2.9717764046321009
v -0.0365132912993431 -0.0095073217526078 -0.0270000007003546
vn 0.0000000000000000 0.0000000000000000 -6.2831853071796040
v 0.0000000000000000 0.0000000000000000 -0.0270000007003546
vn -3.0292701739632268 0.7887608119527877 2.9717764046321009
v -0.0365132912993431 0.0095073217526078 0.0000000000000000
vn 0.0000000000000000 0.0000000000000000 6.2831853071796040
v 0.0000000000000000 0.0000000000000000 0.0000000000000000
vn -3.0292701739632273 0.7887608119527878 -2.9717764046321009
v -0.0365132912993431 0.0095073217526078 -0.0270000007003546
vn -3.0292701739632273 -0.7887608119527878 2.9717764046321009
v -0.0365132912993431 -0.0095073217526078 0.0000000000000000
vn -2.8523959344640524 -1.2893640854948512 -2.9717774916724320
v -0.0343813337385654 -0.0155413439497352 -0.0270000007003546
vn 3.1302750238145265 0.0000000000000000 -2.9717767875895031
v 0.0377307496964931 0.0000000000000000 -0.0270000007003546
vn 3.0852490449087169 -0.5290184138928307 -2.9717772991466687
v 0.0371880270540714 -0.0063765277154744 -0.0270000007003546
vn 2.7327741782975021 1.5266194782043798 -2.9717768068770769
v 0.0329394787549973 0.0184010975062847 -0.0270000007003546
vn 2.9514658660480930 1.0428185822430136 -2.9717763429797941
v 0.0355754755437374 0.0125696146860719 -0.0270000007003546
vn 3.0852490449087169 0.5290184138928306 -2.9717772991466687
v 0.0371880270540714 0.0063765277154744 -0.0270000007003546
vn 1.6412259315609088 2.6655204884566248 -2.9717771570122165
v 0.0197825077921152 0.0321288332343102 -0.0270000007003546
vn 2.0680934134923610 2.3498108820116728 -2.9717765758761194
v 0.0249277539551258 0.0283234305679798 -0.0270000007003546
vn 2.4354658953379236 1.9665013996463290 -2.9717769763794895
v 0.0293558742851019 0.0237032119184732 -0.0270000007003546
vn 0.1328526216609205 3.1274546540897843 -2.9717776362306978
v 0.0016013385029510 0.0376967526972294 -0.0270000007003546
vn 0.6594835372378242 3.0600168013265701 -2.9717763506181036
v 0.0079490868374705 0.0368838943541050 -0.0270000007003546
vn 1.1671436159957633 2.9045477273088967 -2.9717767826228823
v 0.0140681546181440 0.0350099503993988 -0.0270000007003546
vn -1.4092615954200993 2.7951035384150140 -2.9717771593817082
v -0.0169865246862173 0.0336907617747784 -0.0270000007003546
vn -0.9166164080556727 2.9930646777316934 -2.9717768833764953
v -0.0110484231263399 0.0360768884420395 -0.0270000007003546
vn -0.3976004349959898 3.1049211169655120 -2.9717762165619708
v -0.0047924779355526 0.0374251492321491 -0.0270000007003546
vn -2.5934632631559165 1.7528746878039887 -2.9717763604439771
v -0.0312602929770947 0.0211282689124346 -0.0270000007003546
vn -2.2599208507678283 2.1659592466332267 -2.9717767697164499
v -0.0272399466484785 0.0261073727160692 -0.0270000007003546
vn -1.8613649945083475 2.5167324310654209 -2.9717768447133723
v -0.0224359557032585 0.0303354151546955 -0.0270000007003546
vn -2.8523959344640519 1.2893640854948509 -2.9717774916724320
v -0.0343813337385654 0.0155413439497352 -0.0270000007003546
vn -1.8613649945083472 -2.5167324310654209 -2.9717768447133723
v -0.0224359557032585 -0.0303354151546955 -0.0270000007003546
vn -2.2599208507678288 -2.1659592466332267 -2.9717767697164499
v -0.0272399466484785 -0.0261073727160692 -0.0270000007003546
vn -2.5934632631559169 -1.7528746878039887 -2.9717763604439771
v -0.0312602929770947 -0.0211282689124346 -0.0270000007003546
vn -0.4254706674677937 -3.1032809158404007 -3.0058954961913646
v -0.0047924779355526 -0.0374251492321491 -0.0270000007003546
vn -0.9246418660254075 -2.9912099818511990 -2.9887021879910489
v -0.0110484231263399 -0.0360768884420395 -0.0270000007003546
vn -1.4092615954200993 -2.7951035384150140 -2.9717771593817082
v -0.0169865246862173 -0.0336907617747784 -0.0270000007003546
vn 1.1731643498552615 -2.9026775851484286 -2.9800164147081936
v 0.0140681546181440 -0.0350099503993988 -0.0270000007003546
vn 0.6766145956377930 -3.0585560370240743 -3.0109356054202530
v 0.0079490868374705 -0.0368838943541050 -0.0270000007003546
vn 0.1362090159891985 -3.1307888093491503 -3.0333050825769501
v 0.0016013385029510 -0.0376967526972294 -0.0270000007003546
vn 2.4354658953379236 -1.9665013996463290 -2.9717769763794895
v 0.0293558742851019 -0.0237032119184732 -0.0270000007003546
vn 2.0680934134923610 -2.3498108820116723 -2.9717765758761194
v 0.0249277539551258 -0.0283234305679798 -0.0270000007003546
vn 1.6412259315609088 -2.6655204884566248 -2.9717771570122165
v 0.0197825077921152 -0.0321288332343102 -0.0270000007003546
vn 2.9514658660480939 -1.0428185822430138 -2.9717763429797941
v 0.0355754755437374 -0.0125696146860719 -0.0270000007003546
vn 2.7327741782975012 -1.5266194782043798 -2.9717768068770769
v 0.0329394787549973 -0.0184010975062847 -0.0270000007003546
vn -2.8523959344640524 1.2893640854948512 2.9717774916724320
v -0.0343813337385654 0.0155413439497352 0.0000000000000000
vn 3.1302750238145265 -0.0000000000000004 2.9717767875895031
v 0.0377307496964931 -0.0000000000000000 0.0000000000000000
vn 3.0852490449087169 0.5290184138928304 2.9717772991466687
v 0.0371880270540714 0.0063765277154744 0.0000000000000000
vn 2.7327741782975021 -1.5266194782043798 2.9717768068770769
v 0.0329394787549973 -0.0184010975062847 0.0000000000000000
vn 2.9514658660480930 -1.0428185822430136 2.9717763429797941
v 0.0355754755437374 -0.0125696146860719 0.0000000000000000
vn 3.0852490449087169 -0.5290184138928309 2.9717772991466691
v 0.0371880270540714 -0.0063765277154744 0.0000000000000000
vn 1.6412259315609088 -2.6655204884566248 2.9717771570122165
v 0.0197825077921152 -0.0321288332343102 0.0000000000000000
vn 2.0680934134923610 -2.3498108820116723 2.9717765758761194
v 0.0249277539551258 -0.0283234305679798 0.0000000000000000
vn 2.4354658953379236 -1.9665013996463290 2.9717769763794895
v 0.0293558742851019 -0.0237032119184732 0.0000000000000000
vn 0.1590667329890506 -3.1281829925190960 3.0034923826615336
v 0.0016013385029510 -0.0376967526972294 0.0000000000000000
vn 0.6701472121137344 -3.0584608475968684 2.9928441971293651
v 0.0079490868374705 -0.0368838943541050 0.0000000000000000
vn 1.1685851158965412 -2.9040947777002635 2.9760583926658368
v 0.0140681546181440 -0.0350099503993988 0.0000000000000000
vn -1.4092615954200993 -2.7951035384150140 2.9717771593817082
v -0.0169865246862173 -0.0336907617747784 0.0000000000000000
vn -0.9291016136124084 -2.9902539904549403 2.9899903397112197
v -0.0110484231263399 -0.0360768884420395 0.0000000000000000
vn -0.4116968375162682 -3.1059084328716686 3.0203419226080821
v -0.0047924779355526 -0.0374251492321491 0.0000000000000000
vn -2.5934632631559165 -1.7528746878039887 2.9717763604439771
v -0.0312602929770947 -0.0211282689124346 0.0000000000000000
vn -2.2599208507678283 -2.1659592466332263 2.9717767697164499
v -0.0272399466484785 -0.0261073727160692 0.0000000000000000
vn -1.8613649945083475 -2.5167324310654209 2.9717768447133723
v -0.0224359557032585 -0.0303354151546955 0.0000000000000000
vn -2.8523959344640524 -1.2893640854948512 2.9717774916724320
v -0.0343813337385654 -0.0155413439497352 0.0000000000000000
vn -1.8613649945083472 2.5167324310654209 2.9717768447133723
v -0.0224359557032585 0.0303354151546955 0.0000000000000000
vn -2.2599208507678288 2.1659592466332267 2.9717767697164499
v -0.0272399466484785 0.0261073727160692 0.0000000000000000
vn -2.5934632631559165 1.7528746878039887 2.9717763604439771
v -0.0312602929770947 0.0211282689124346 0.0000000000000000
vn -0.3976004349959897 3.1049211169655115 2.9717762165619708
v -0.0047924779355526 0.0374251492321491 0.0000000000000000
vn -0.9166164080556728 2.9930646777316934 2.9717768833764953
v -0.0110484231263399 0.0360768884420395 0.0000000000000000
vn -1.4092615954200993 2.7951035384150140 2.9717771593817082
v -0.0169865246862173 0.0336907617747784 0.0000000000000000
vn 1.1671436159957633 2.9045477273088967 2.9717767826228823
v 0.0140681546181440 0.0350099503993988 0.0000000000000000
vn 0.6594835372378243 3.0600168013265701 2.9717763506181036
v 0.0079490868374705 0.0368838943541050 0.0000000000000000
vn 0.1328526216609205 3.1274546540897843 2.9717776362306978
v 0.0016013385029510 0.0376967526972294 0.0000000000000000
vn 2.4354658953379236 1.9665013996463290 2.9717769763794895
v 0.0293558742851019 0.0237032119184732 0.0000000000000000
vn 2.0680934134923610 2.3498108820116723 2.9717765758761194
v 0.0249277539551258 0.0283234305679798 0.0000000000000000
vn 1.6412259315609088 2.6655204884566248 2.9717771570122165
v 0.0197825077921152 0.0321288332343102 0.0000000000000000
vn 2.9514658660480935 1.0428185822430138 2.9717763429797941
v 0.0355754755437374 0.0125696146860719 0.0000000000000000
vn 2.7327741782975017 1.5266194782043798 2.9717768068770769
v 0.0329394787549973 0.0184010975062847 0.0000000000000000
vn -1.3944680197539832 -3.3078326769974629 -2.9870779566950834
v -0.0031977852340788 -0.0375949963927269 -0.0227854773402214
vn -2.1461735040564740 -3.2692701804249054 -2.7668816264819593
v -0.0047924779355526 -0.0374251492321491 -0.0220276471227407
vn -0.0314870722619662 -3.3392835363959832 -3.2440574270807838
v -0.0000000301606917 -0.0377307496964931 -0.0233493279665709
vn -0.6920757545588706 -3.3103053186011993 -3.2446634974500905
v -0.0016292664222419 -0.0376955568790436 -0.0232062805444002
vn -3.9037635689401142 -3.2073385540977184 -0.5336024190552680
v -0.0092075988650322 -0.0365900211036205 -0.0156232602894306
vn -3.9792997443046181 -3.2010024737859908 0.0009000832495467
v -0.0093496385961771 -0.0365539863705635 -0.0139940604567528
vn -3.1070620263462922 -3.2397272568543545 -2.0492530208914026
v -0.0071647646836936 -0.0370442420244217 -0.0200065299868584
vn -3.4705481524446480 -3.2251645746144781 -1.5651614221451595
v -0.0080970302224159 -0.0368517003953457 -0.0186745226383209
vn -3.7350431581114387 -3.2174336272402688 -1.0584026785229979
v -0.0087868617847562 -0.0366933308541775 -0.0171945262700319
vn -2.6588475185113278 -3.2441129780162248 -2.5016637363988563
v -0.0060098441317677 -0.0372490435838699 -0.0211619343608618
vn 4.1072518701906802 -3.1621016791286287 0.0004557960857084
v 0.0093495799228549 -0.0365540012717247 -0.0139960609376431
vn 4.0233932685290350 -3.1723728184422439 -0.5502197751010118
v 0.0092075392603874 -0.0365900360047817 -0.0156232602894306
vn 3.8372398000082297 -3.1890317229906806 -1.0793404553205517
v 0.0087861279025674 -0.0366935096681118 -0.0171963796019554
vn 3.0331496794313697 -3.2529197751967676 -2.0121449996805887
v 0.0070687928237021 -0.0370626747608185 -0.0201191101223230
vn 2.5723130126487859 -3.2589959174958185 -2.4208565750904141
v 0.0060097835958004 -0.0372490547597408 -0.0211619343608618
vn 2.0207055010353345 -3.3117309637022738 -2.8023187536580298
v 0.0046763438731432 -0.0374398380517960 -0.0220958124846220
vn 1.4649166750269578 -3.3223028522313114 -3.0254644509608775
v 0.0031977249309421 -0.0375950001180172 -0.0227854773402214
vn 3.4253527407621256 -3.2422658670282747 -1.5472517386547853
v 0.0080969696864486 -0.0368517115712166 -0.0186745226383209
vn 0.6825295547654149 -3.3448653094496357 -3.1224276514591400
v 0.0016013385029510 -0.0376967526972294 -0.0232111681252718
vn -0.6926105140197745 -3.3427232738808361 3.1835520821098537
v -0.0016238737152889 -0.0376957915723324 -0.0047922013327479
vn -0.0392677811577284 -3.3405439086418238 3.2004177980030035
v -0.0000000301606917 -0.0377307496964931 -0.0046501066535711
vn 0.7756811877712028 -3.3073377578233618 3.1777702887134893
v 0.0016013385029510 -0.0376967526972294 -0.0047882660292089
vn 1.4048829879446558 -3.2936203846226779 3.1324837446227738
v 0.0031977249309421 -0.0375950001180172 -0.0052139572799206
vn 2.0321990471299189 -3.2841793747507895 2.7848507558042330
v 0.0046713221818209 -0.0374404639005661 -0.0059007243253291
vn 2.5706838153907485 -3.2591913330834541 2.4186136603490618
v 0.0060097835958004 -0.0372490547597408 -0.0068375002592802
vn 3.0124789887632715 -3.2415930511959647 2.0331801248881156
v 0.0070649883709848 -0.0370633974671364 -0.0078759333118796
vn 3.4254946406276798 -3.1337207565041028 1.7782201562784041
v 0.0079490868374705 -0.0368838943541050 -0.0090776495635509
vn 3.8319969702523338 -3.1902229876690753 1.0950991350925880
v 0.0087834466248751 -0.0366941504180431 -0.0107956966385245
vn 4.0206037697303616 -3.1732109748379327 0.5508089626184651
v 0.0092075392603874 -0.0365900360047817 -0.0123761743307114
vn 3.6132079633649301 -3.1296877521788882 1.5286568995703416
v 0.0080967927351594 -0.0368517525494099 -0.0093246046453714
vn -3.9019789293546463 -3.2076949146926772 0.5351690575702722
v -0.0092075988650322 -0.0365900211036205 -0.0123761743307114
vn -3.7324837053782778 -3.2179463693415382 1.0592754963382471
v -0.0087832706049085 -0.0366941913962364 -0.0107950484380126
vn -3.4670509278859076 -3.2257517372433719 1.5645537482085836
v -0.0080970302224159 -0.0368517003953457 -0.0093249119818211
vn -3.1019210958716932 -3.2407825396886389 2.0452398430736207
v -0.0071591557934880 -0.0370453260838985 -0.0079862214624882
vn -2.6610841420598406 -3.2454821343744698 2.4330611922122918
v -0.0060098441317677 -0.0372490435838699 -0.0068375002592802
vn -1.4134626873128244 -3.3335813089752029 2.9733470902632186
v -0.0031977852340788 -0.0375949963927269 -0.0052139572799206
vn -2.0299916964523366 -3.3123397075596039 2.7141233907543985
v -0.0047924779355526 -0.0374251492321491 -0.0059717870317400
vn -1.0595159746499696 -2.8210431827257367 -2.9102540148201363
v -0.0031977852340788 -0.0520000010728836 -0.0227854773402214
vn -1.9908861013740666 -2.8206317731886226 -2.3723631982377307
v -0.0060098441317677 -0.0520000010728836 -0.0211619343608618
vn 1.0584075140906359 -2.7947196949350257 -2.9072315984137225
v 0.0031977249309421 -0.0520000010728836 -0.0227854773402214
vn 0.0097487798069775 -2.8069975249016541 -3.0955126880028558
v -0.0000000301606917 -0.0520000010728836 -0.0233493279665709
vn -3.0499056624933569 -2.8196019816107318 -0.5376972142926253
v -0.0092075988650322 -0.0520000010728836 -0.0156232602894306
vn -3.0499056268057885 -2.8196028403413633 0.5376977663019706
v -0.0092075988650322 -0.0520000010728836 -0.0123761743307114
vn -2.6821774693379536 -2.8200136845977219 -1.5483101396631762
v -0.0080970302224159 -0.0520000010728836 -0.0186745226383209
vn 3.0499054935257854 -2.8196018880144411 0.5376981368590927
v 0.0092075392603874 -0.0520000010728836 -0.0123761743307114
vn 3.0499055406983278 -2.8196020226087826 -0.5376977009159106
v 0.0092075392603874 -0.0520000010728836 -0.0156232602894306
vn 2.6821338470639948 -2.8198306022079040 -1.5483646840657506
v 0.0080969696864486 -0.0520000010728836 -0.0186745226383209
vn 1.9828066818723884 -2.8085515022472247 -2.3770756559234512
v 0.0060097835958004 -0.0520000010728836 -0.0211619343608618
vn -1.0584064056710518 -2.7947205354618165 2.9072318088807916
v -0.0031977852340788 -0.0520000010728836 -0.0052139572799206
vn -0.0097493042002642 -2.8070154470819957 3.0955126640603550
v -0.0000000301606917 -0.0520000010728836 -0.0046501066535711
vn 1.0594390566777649 -2.8212277619063606 2.9102956939828131
v 0.0031977249309421 -0.0520000010728836 -0.0052139572799206
vn 1.9909875089950368 -2.8206482084697697 2.3722802397175862
v 0.0060097835958004 -0.0520000010728836 -0.0068375002592802
vn 2.6821346108355169 -2.8200035158300265 1.5483630001969499
v 0.0080969696864486 -0.0520000010728836 -0.0093249119818211
vn -2.6821773212002071 -2.8200158422292581 1.5483107240361309
v -0.0080970302224159 -0.0520000010728836 -0.0093249119818211
vn -1.9827627966660260 -2.8085436262897669 2.3771232273280996
v -0.0060098441317677 -0.0520000010728836 -0.0068375002592802
vn 0.0000000000000000 -6.2831853071795907 0.0000000000000000
v -0.0000000301606917 -0.0520000010728836 -0.0139997173100710
# 132 vertices, 0 vertices normals

f 1//1 2//2 3//3
f 1//1 3//3 4//4
f 4//4 3//3 5//5
f 6//6 5//5 3//3
f 6//6 3//3 2//2
f 7//7 2//2 1//1
f 8//8 7//7 1//1
f 8//8 1//1 4//4
f 7//7 9//9 2//2
f 2//2 9//9 6//6
f 4//4 5//5 10//10
f 4//4 10//10 8//8
f 10//10 5//5 11//11
f 11//11 5//5 6//6
f 12//12 13//13 6//6
f 14//14 15//15 6//6
f 6//6 15//15 16//16
f 6//6 16//16 12//12
f 17//17 18//18 6//6
f 6//6 18//18 19//19
f 6//6 19//19 14//14
f 20//20 21//21 6//6
f 6//6 21//21 22//22
f 6//6 22//22 17//17
f 23//23 24//24 6//6
f 6//6 24//24 25//25
f 6//6 25//25 20//20
f 26//26 27//27 6//6
f 6//6 27//27 28//28
f 6//6 28//28 23//23
f 6//6 9//9 29//29
f 6//6 29//29 26//26
f 30//30 31//31 6//6
f 6//6 31//31 32//32
f 6//6 32//32 11//11
f 33//33 34//34 6//6
f 6//6 34//34 35//35
f 6//6 35//35 30//30
f 36//36 37//37 6//6
f 6//6 37//37 38//38
f 6//6 38//38 33//33
f 39//39 40//40 6//6
f 6//6 40//40 41//41
f 6//6 41//41 36//36
f 13//13 42//42 6//6
f 6//6 42//42 43//43
f 6//6 43//43 39//39
f 44//44 9//9 7//7
f 44//44 7//7 8//8
f 45//45 46//46 8//8
f 47//47 48//48 8//8
f 8//8 48//48 49//49
f 8//8 49//49 45//45
f 50//50 51//51 8//8
f 8//8 51//51 52//52
f 8//8 52//52 47//47
f 53//53 54//54 8//8
f 8//8 54//54 55//55
f 8//8 55//55 50//50
f 56//56 57//57 8//8
f 8//8 57//57 58//58
f 8//8 58//58 53//53
f 59//59 60//60 8//8
f 8//8 60//60 61//61
f 8//8 61//61 56//56
f 8//8 10//10 62//62
f 8//8 62//62 59//59
f 63//63 64//64 8//8
f 8//8 64//64 65//65
f 8//8 65//65 44//44
f 66//66 67//67 8//8
f 8//8 67//67 68//68
f 8//8 68//68 63//63
f 69//69 70//70 8//8
f 8//8 70//70 71//71
f 8//8 71//71 66//66
f 72//72 73//73 8//8
f 8//8 73//73 74//74
f 8//8 74//74 69//69
f 46//46 75//75 8//8
f 8//8 75//75 76//76
f 8//8 76//76 72//72
f 44//44 29//29 9//9
f 10//10 11//11 62//62
f 62//62 11//11 32//32
f 49//49 13//13 12//12
f 49//49 12//12 45//45
f 45//45 12//12 16//16
f 48//48 42//42 13//13
f 48//48 13//13 49//49
f 75//75 15//15 14//14
f 75//75 14//14 76//76
f 76//76 14//14 19//19
f 46//46 16//16 15//15
f 46//46 15//15 75//75
f 45//45 16//16 46//46
f 73//73 18//18 17//17
f 73//73 17//17 74//74
f 74//74 17//17 22//22
f 72//72 19//19 18//18
f 72//72 18//18 73//73
f 76//76 19//19 72//72
f 70//70 21//21 20//20
f 70//70 20//20 71//71
f 71//71 20//20 25//25
f 69//69 22//22 21//21
f 69//69 21//21 70//70
f 74//74 22//22 69//69
f 67//67 24//24 23//23
f 67//67 23//23 68//68
f 68//68 23//23 28//28
f 66//66 25//25 24//24
f 66//66 24//24 67//67
f 71//71 25//25 66//66
f 64//64 27//27 26//26
f 64//64 26//26 65//65
f 65//65 26//26 29//29
f 63//63 28//28 27//27
f 63//63 27//27 64//64
f 68//68 28//28 63//63
f 65//65 29//29 44//44
f 60//60 31//31 30//30
f 60//60 30//30 61//61
f 61//61 30//30 35//35
f 59//59 32//32 31//31
f 59//59 31//31 60//60
f 62//62 32//32 59//59
f 77//77 78//78 33//33
f 33//33 78//78 34//34
f 38//38 79//79 33//33
f 33//33 79//79 80//80
f 33//33 80//80 77//77
f 81//81 82//82 34//34
f 83//83 84//84 34//34
f 34//34 84//84 85//85
f 34//34 85//85 81//81
f 34//34 78//78 86//86
f 34//34 86//86 83//83
f 56//56 35//35 34//34
f 56//56 34//34 57//57
f 57//57 34//34 82//82
f 61//61 35//35 56//56
f 87//87 88//88 36//36
f 36//36 88//88 89//89
f 36//36 89//89 37//37
f 87//87 36//36 55//55
f 55//55 36//36 41//41
f 37//37 90//90 91//91
f 91//91 92//92 37//37
f 37//37 92//92 93//93
f 37//37 93//93 38//38
f 37//37 89//89 94//94
f 37//37 94//94 90//90
f 38//38 93//93 95//95
f 38//38 95//95 79//79
f 51//51 40//40 39//39
f 51//51 39//39 52//52
f 52//52 39//39 43//43
f 50//50 41//41 40//40
f 50//50 40//40 51//51
f 55//55 41//41 50//50
f 47//47 43//43 42//42
f 47//47 42//42 48//48
f 52//52 43//43 47//47
f 58//58 96//96 53//53
f 96//96 97//97 53//53
f 53//53 97//97 98//98
f 53//53 98//98 54//54
f 98//98 99//99 54//54
f 54//54 99//99 100//100
f 54//54 100//100 101//101
f 101//101 102//102 54//54
f 54//54 102//102 103//103
f 54//54 103//103 55//55
f 104//104 105//105 55//55
f 55//55 105//105 87//87
f 55//55 103//103 106//106
f 55//55 106//106 104//104
f 107//107 108//108 57//57
f 57//57 108//108 109//109
f 109//109 110//110 57//57
f 57//57 110//110 111//111
f 57//57 111//111 58//58
f 57//57 82//82 107//107
f 58//58 112//112 96//96
f 58//58 111//111 113//113
f 58//58 113//113 112//112
f 80//80 114//114 77//77
f 77//77 114//114 78//78
f 78//78 114//114 115//115
f 78//78 115//115 86//86
f 95//95 116//116 79//79
f 79//79 116//116 117//117
f 79//79 117//117 80//80
f 80//80 117//117 114//114
f 85//85 118//118 81//81
f 81//81 118//118 82//82
f 82//82 118//118 119//119
f 82//82 119//119 107//107
f 86//86 115//115 83//83
f 83//83 115//115 120//120
f 83//83 120//120 84//84
f 84//84 120//120 85//85
f 85//85 120//120 118//118
f 105//105 121//121 87//87
f 87//87 121//121 122//122
f 87//87 122//122 88//88
f 88//88 122//122 89//89
f 89//89 122//122 123//123
f 89//89 123//123 94//94
f 94//94 123//123 90//90
f 90//90 123//123 124//124
f 90//90 124//124 91//91
f 124//124 92//92 91//91
f 124//124 93//93 92//92
f 95//95 93//93 116//116
f 116//116 93//93 124//124
f 125//125 97//97 96//96
f 125//125 96//96 112//112
f 126//126 98//98 97//97
f 126//126 97//97 125//125
f 127//127 99//99 98//98
f 127//127 98//98 126//126
f 100//100 99//99 127//127
f 127//127 128//128 100//100
f 128//128 101//101 100//100
f 128//128 102//102 101//101
f 129//129 103//103 102//102
f 129//129 102//102 128//128
f 106//106 103//103 129//129
f 106//106 129//129 104//104
f 104//104 129//129 121//121
f 104//104 121//121 105//105
f 107//107 119//119 108//108
f 108//108 119//119 130//130
f 108//108 130//130 109//109
f 109//109 130//130 110//110
f 110//110 130//130 131//131
f 110//110 131//131 111//111
f 131//131 113//113 111//111
f 125//125 112//112 131//131
f 131//131 112//112 113//113
f 115//115 114//114 132//132
f 132//132 114//114 117//117
f 132//132 120//120 115//115
f 116//116 124//124 132//132
f 132//132 117//117 116//116
f 119//119 118//118 132//132
f 132//132 118//118 120//120
f 132//132 130//130 119//119
f 122//122 121//121 132//132
f 132//132 121//121 129//129
f 132//132 123//123 122//122
f 132//132 124//124 123//123
f 132//132 126//126 125//125
f 125//125 131//131 132//132
f 132//132 127//127 126//126
f 128//128 127//127 132//132
f 132//132 129//129 128//128
f 132//132 131//131 130//130
# 260 faces, 0 coords texture

# End of File
